<svg id="visual" viewBox="0 0 900 600" width="900" height="600" xmlns="http://www.w3.org/2000/svg" xmlns:xlink="http://www.w3.org/1999/xlink" version="1.1"><path d="M0 43L25 42C50 41 100 39 150 46C200 53 250 69 300 93C350 117 400 149 450 142C500 135 550 89 600 75C650 61 700 79 750 88C800 97 850 97 875 97L900 97L900 0L875 0C850 0 800 0 750 0C700 0 650 0 600 0C550 0 500 0 450 0C400 0 350 0 300 0C250 0 200 0 150 0C100 0 50 0 25 0L0 0Z" fill="#124d9b"></path><path d="M0 145L25 144C50 143 100 141 150 147C200 153 250 167 300 186C350 205 400 229 450 223C500 217 550 181 600 167C650 153 700 161 750 160C800 159 850 149 875 144L900 139L900 95L875 95C850 95 800 95 750 86C700 77 650 59 600 73C550 87 500 133 450 140C400 147 350 115 300 91C250 67 200 51 150 44C100 37 50 39 25 40L0 41Z" fill="#1e63c9"></path><path d="M0 307L25 295C50 283 100 259 150 245C200 231 250 227 300 236C350 245 400 267 450 264C500 261 550 233 600 232C650 231 700 257 750 287C800 317 850 351 875 368L900 385L900 137L875 142C850 147 800 157 750 158C700 159 650 151 600 165C550 179 500 215 450 221C400 227 350 203 300 184C250 165 200 151 150 145C100 139 50 141 25 142L0 143Z" fill="#5485de"></path><path d="M0 349L25 332C50 315 100 281 150 268C200 255 250 263 300 277C350 291 400 311 450 305C500 299 550 267 600 270C650 273 700 311 750 345C800 379 850 409 875 424L900 439L900 383L875 366C850 349 800 315 750 285C700 255 650 229 600 230C550 231 500 259 450 262C400 265 350 243 300 234C250 225 200 229 150 243C100 257 50 281 25 293L0 305Z" fill="#6893e3"></path><path d="M0 367L25 357C50 347 100 327 150 317C200 307 250 307 300 313C350 319 400 331 450 321C500 311 550 279 600 289C650 299 700 351 750 385C800 419 850 435 875 443L900 451L900 437L875 422C850 407 800 377 750 343C700 309 650 271 600 268C550 265 500 297 450 303C400 309 350 289 300 275C250 261 200 253 150 266C100 279 50 313 25 330L0 347Z" fill="#5485de"></path><path d="M0 571L25 566C50 561 100 551 150 543C200 535 250 529 300 534C350 539 400 555 450 563C500 571 550 571 600 563C650 555 700 539 750 530C800 521 850 519 875 518L900 517L900 449L875 441C850 433 800 417 750 383C700 349 650 297 600 287C550 277 500 309 450 319C400 329 350 317 300 311C250 305 200 305 150 315C100 325 50 345 25 355L0 365Z" fill="#1e63c9"></path><path d="M0 601L25 601C50 601 100 601 150 601C200 601 250 601 300 601C350 601 400 601 450 601C500 601 550 601 600 601C650 601 700 601 750 601C800 601 850 601 875 601L900 601L900 515L875 516C850 517 800 519 750 528C700 537 650 553 600 561C550 569 500 569 450 561C400 553 350 537 300 532C250 527 200 533 150 541C100 549 50 559 25 564L0 569Z" fill="#124d9b"></path></svg>