<svg id="visual" viewBox="0 0 900 675" width="900" height="675" xmlns="http://www.w3.org/2000/svg" xmlns:xlink="http://www.w3.org/1999/xlink" version="1.1"><path d="M0 28L25 26.8C50 25.7 100 23.3 150 27.8C200 32.3 250 43.7 300 42.7C350 41.7 400 28.3 450 27.2C500 26 550 37 600 40.3C650 43.7 700 39.3 750 34.8C800 30.3 850 25.7 875 23.3L900 21L900 0L875 0C850 0 800 0 750 0C700 0 650 0 600 0C550 0 500 0 450 0C400 0 350 0 300 0C250 0 200 0 150 0C100 0 50 0 25 0L0 0Z" fill="#3f6059"></path><path d="M0 190L25 204.7C50 219.3 100 248.7 150 239.7C200 230.7 250 183.3 300 151.8C350 120.3 400 104.7 450 125C500 145.3 550 201.7 600 205C650 208.3 700 158.7 750 130.5C800 102.3 850 95.7 875 92.3L900 89L900 19L875 21.3C850 23.7 800 28.3 750 32.8C700 37.3 650 41.7 600 38.3C550 35 500 24 450 25.2C400 26.3 350 39.7 300 40.7C250 41.7 200 30.3 150 25.8C100 21.3 50 23.7 25 24.8L0 26Z" fill="#37564f"></path><path d="M0 197L25 211.7C50 226.3 100 255.7 150 254.5C200 253.3 250 221.7 300 193.5C350 165.3 400 140.7 450 156.5C500 172.3 550 228.7 600 232C650 235.3 700 185.7 750 156.3C800 127 850 118 875 113.5L900 109L900 87L875 90.3C850 93.7 800 100.3 750 128.5C700 156.7 650 206.3 600 203C550 199.7 500 143.3 450 123C400 102.7 350 118.3 300 149.8C250 181.3 200 228.7 150 237.7C100 246.7 50 217.3 25 202.7L0 188Z" fill="#2f4c46"></path><path d="M0 231L25 254.5C50 278 100 325 150 329.5C200 334 250 296 300 261.2C350 226.3 400 194.7 450 204.7C500 214.7 550 266.3 600 270.8C650 275.3 700 232.7 750 203.5C800 174.3 850 158.7 875 150.8L900 143L900 107L875 111.5C850 116 800 125 750 154.3C700 183.7 650 233.3 600 230C550 226.7 500 170.3 450 154.5C400 138.7 350 163.3 300 191.5C250 219.7 200 251.3 150 252.5C100 253.7 50 224.3 25 209.7L0 195Z" fill="#27423c"></path><path d="M0 366L25 379.5C50 393 100 420 150 441.3C200 462.7 250 478.3 300 469.3C350 460.3 400 426.7 450 422.2C500 417.7 550 442.3 600 440C650 437.7 700 408.3 750 406C800 403.7 850 428.3 875 440.7L900 453L900 141L875 148.8C850 156.7 800 172.3 750 201.5C700 230.7 650 273.3 600 268.8C550 264.3 500 212.7 450 202.7C400 192.7 350 224.3 300 259.2C250 294 200 332 150 327.5C100 323 50 276 25 252.5L0 229Z" fill="#203833"></path><path d="M0 426L25 439.5C50 453 100 480 150 501.5C200 523 250 539 300 522.2C350 505.3 400 455.7 450 450C500 444.3 550 482.7 600 486C650 489.3 700 457.7 750 457.7C800 457.7 850 489.3 875 505.2L900 521L900 451L875 438.7C850 426.3 800 401.7 750 404C700 406.3 650 435.7 600 438C550 440.3 500 415.7 450 420.2C400 424.7 350 458.3 300 467.3C250 476.3 200 460.7 150 439.3C100 418 50 391 25 377.5L0 364Z" fill="#1e3430"></path><path d="M0 460L25 471.3C50 482.7 100 505.3 150 525.7C200 546 250 564 300 561.7C350 559.3 400 536.7 450 538.8C500 541 550 568 600 568C650 568 700 541 750 534.3C800 527.7 850 541.3 875 548.2L900 555L900 519L875 503.2C850 487.3 800 455.7 750 455.7C700 455.7 650 487.3 600 484C550 480.7 500 442.3 450 448C400 453.7 350 503.3 300 520.2C250 537 200 521 150 499.5C100 478 50 451 25 437.5L0 424Z" fill="#1c312d"></path><path d="M0 568L25 579.3C50 590.7 100 613.3 150 621.2C200 629 250 622 300 620.8C350 619.7 400 624.3 450 630C500 635.7 550 642.3 600 634.5C650 626.7 700 604.3 750 599.8C800 595.3 850 608.7 875 615.3L900 622L900 553L875 546.2C850 539.3 800 525.7 750 532.3C700 539 650 566 600 566C550 566 500 539 450 536.8C400 534.7 350 557.3 300 559.7C250 562 200 544 150 523.7C100 503.3 50 480.7 25 469.3L0 458Z" fill="#1b2d2a"></path><path d="M0 676L25 676C50 676 100 676 150 676C200 676 250 676 300 676C350 676 400 676 450 676C500 676 550 676 600 676C650 676 700 676 750 676C800 676 850 676 875 676L900 676L900 620L875 613.3C850 606.7 800 593.3 750 597.8C700 602.3 650 624.7 600 632.5C550 640.3 500 633.7 450 628C400 622.3 350 617.7 300 618.8C250 620 200 627 150 619.2C100 611.3 50 588.7 25 577.3L0 566Z" fill="#192a27"></path></svg>