<svg id="visual" viewBox="0 0 900 600" width="900" height="600" xmlns="http://www.w3.org/2000/svg" xmlns:xlink="http://www.w3.org/1999/xlink" version="1.1"><path d="M0 115L82 97L164 199L245 163L327 253L409 163L491 229L573 247L655 211L736 199L818 229L900 259L900 0L818 0L736 0L655 0L573 0L491 0L409 0L327 0L245 0L164 0L82 0L0 0Z" fill="#013a28"></path><path d="M0 271L82 289L164 355L245 373L327 373L409 325L491 343L573 379L655 283L736 343L818 307L900 379L900 257L818 227L736 197L655 209L573 245L491 227L409 161L327 251L245 161L164 197L82 95L0 113Z" fill="#0b3a2d"></path><path d="M0 379L82 355L164 403L245 457L327 409L409 397L491 439L573 457L655 391L736 415L818 391L900 487L900 377L818 305L736 341L655 281L573 377L491 341L409 323L327 371L245 371L164 353L82 287L0 269Z" fill="#163931"></path><path d="M0 457L82 457L164 493L245 505L327 511L409 433L491 487L573 511L655 487L736 469L818 427L900 523L900 485L818 389L736 413L655 389L573 455L491 437L409 395L327 407L245 455L164 401L82 353L0 377Z" fill="#1f3934"></path><path d="M0 601L82 601L164 601L245 601L327 601L409 601L491 601L573 601L655 601L736 601L818 601L900 601L900 521L818 425L736 467L655 485L573 509L491 485L409 431L327 509L245 503L164 491L82 455L0 455Z" fill="#283836"></path></svg>